<?xml version="1.0" encoding="UTF-8"?>
<svg id="Capa_1" xmlns="http://www.w3.org/2000/svg" version="1.1" viewBox="0 0 993.67 204.16">
  <defs>
    <style>
      .st0 {
        fill: #161616;
      }
    </style>
  </defs>
  <path class="st0" d="M186.52,195.75h-34.29l-12.55-27.61H46.85l-12.55,27.61H0L88.67,0h35.11l-26.76,58.56h26.76l62.74,137.19ZM124.64,137.19l-31.79-69.43-31.79,69.43h63.57Z"/>
  <g fill="#161616">
    <path d="M795.31,184.08c-7.52,6.69-15.89,11.71-25.09,15.05-9.21,3.35-20.08,5.02-32.62,5.02-14.22,0-26.77-2.51-38.48-6.7-10.87-4.17-20.07-10.03-28.45-16.72-8.36-7.53-15.05-15.89-20.06-25.09-5.02-9.2-9.2-19.24-11.72-29.27-1.67-10.88-2.51-21.75-1.67-32.62.84-10.04,2.52-20.92,6.69-30.96h38.47c-4.19,6.69-6.69,14.22-8.36,21.75-2.5,8.37-2.5,15.89-1.67,24.27,0,7.51,2.51,15.88,5.02,23.41,3.34,7.52,7.53,14.21,13.38,19.23,5.02,5.86,11.71,10.87,20.08,14.22,7.52,3.34,16.73,5.01,26.77,5.01,5.01,0,10.04,0,14.22-.83,4.18-.84,7.53-2.52,10.87-3.34,3.34-1.68,5.86-3.35,7.53-5.02,2.51-.83,4.19-2.51,5.86-4.18l19.23,26.76ZM659.81,34.35c8.36-10.02,19.24-18.4,31.78-24.26C704.98,3.4,720.04.06,737.6.06c10.04,0,20.07,1.67,30.12,5.86,10.03,3.34,19.24,8.36,27.59,14.21l-19.23,27.61c-4.19-4.19-9.21-7.53-15.9-10.04-6.68-2.51-14.21-4.19-22.58-4.19-12.55,0-23.42,2.52-31.79,7.54-9.2,5.01-15.89,11.71-21.74,19.24l-24.26-25.95Z"/>
    <polygon points="483.89 0 610.2 0 610.2 31.8 517.35 31.8 517.35 81.98 590.12 81.98 590.12 113.77 517.35 113.77 517.35 163.95 610.2 163.95 610.2 195.75 483.89 195.75 483.89 31.8 517.35 31.8 483.89 31.8 483.89 0"/>
    <polygon points="833.9 0 867.36 0 867.36 81.98 960.21 81.98 960.21 0 993.67 0 993.67 195.75 960.21 195.75 960.21 113.77 867.36 113.77 867.36 195.75 833.9 195.75 833.9 113.77 867.36 113.77 833.9 113.77 833.9 0"/>
    <polygon points="251.35 0 251.35 195.75 217.88 195.75 217.88 58.56 251.35 31.8 217.88 31.8 217.88 0 251.35 0"/>
    <path d="M385.81,195.77h-33.46V31.78h33.46v163.98ZM288.78,0h160.6v31.85h-160.6V0Z"/>
  </g>
</svg>